<?xml version="1.0" encoding="UTF-8"?>
<svg xmlns="http://www.w3.org/2000/svg" xmlns:xlink="http://www.w3.org/1999/xlink" viewBox="0 0 26 26" width="28px" height="28px">
<g id="surface928211">
<path style=" stroke:none;fill-rule:nonzero;fill:rgb(90.588236%,29.803923%,23.529412%);fill-opacity:1;" d="M 8.152344 7.777344 C 7.945312 7.777344 7.738281 7.792969 7.519531 7.816406 L 7.644531 8.207031 C 7.835938 8.1875 8.023438 8.179688 8.214844 8.179688 L 8.28125 8.179688 Z M 10.65625 8.167969 L 10.632812 8.597656 C 10.847656 8.671875 11.058594 8.753906 11.269531 8.835938 L 11.296875 8.394531 C 11.238281 8.363281 11.070312 8.285156 10.65625 8.167969 Z M 5.253906 8.414062 C 5.089844 8.5 4.917969 8.59375 4.742188 8.699219 L 5.042969 9.15625 C 5.214844 9.050781 5.378906 8.953125 5.550781 8.871094 Z M 8.234375 8.4375 C 8.050781 8.4375 7.863281 8.449219 7.675781 8.464844 C 5.761719 8.636719 3.40625 10.382812 2.03125 12.675781 C 0.648438 14.972656 0.464844 16.925781 0.464844 16.925781 L 5.644531 16.925781 C 5.644531 16.925781 4.65625 12.398438 7.9375 10.5625 C 8.621094 10.230469 10.742188 9.027344 14.1875 11.332031 L 14.445312 11.097656 C 13.46875 10.261719 10.996094 8.414062 8.234375 8.4375 Z M 10.644531 10.230469 L 10.621094 10.640625 C 10.835938 10.648438 11.050781 10.675781 11.269531 10.722656 L 11.296875 10.3125 C 11.074219 10.269531 10.855469 10.242188 10.644531 10.230469 Z M 9.109375 10.386719 C 8.886719 10.453125 8.695312 10.523438 8.53125 10.597656 L 8.683594 11.050781 C 8.871094 10.957031 9.0625 10.878906 9.253906 10.820312 Z M 2.601562 10.414062 C 2.429688 10.578125 2.265625 10.742188 2.117188 10.90625 L 2.621094 11.339844 C 2.757812 11.160156 2.910156 10.984375 3.066406 10.820312 Z M 7.304688 11.382812 C 7.152344 11.523438 7.011719 11.671875 6.894531 11.824219 L 7.210938 12.296875 C 7.320312 12.132812 7.453125 11.980469 7.597656 11.832031 Z M 8.246094 12.320312 L 8.246094 16.839844 L 9.347656 16.839844 L 9.347656 15.589844 L 9.488281 15.734375 L 10.519531 16.839844 L 12.1875 16.839844 L 10.738281 15.378906 L 10.910156 15.363281 C 10.953125 15.359375 11.988281 15.25 11.988281 13.863281 C 11.988281 12.472656 10.722656 12.324219 10.675781 12.320312 Z M 13.902344 12.351562 C 13.046875 12.351562 12.761719 13.136719 12.761719 13.492188 L 12.761719 16.839844 L 13.878906 16.839844 L 13.878906 16.019531 L 15.242188 16.019531 L 15.242188 16.839844 L 16.320312 16.839844 L 16.320312 13.492188 C 16.320312 12.5625 15.476562 12.351562 15.183594 12.351562 Z M 17.070312 12.351562 L 17.070312 16.839844 L 18.238281 16.839844 L 18.238281 12.351562 Z M 18.945312 12.351562 L 18.945312 16.839844 L 21.90625 16.839844 L 21.90625 15.800781 L 20.113281 15.800781 L 20.113281 12.351562 Z M 23.589844 12.351562 C 23.105469 12.351562 22.441406 12.753906 22.441406 13.511719 L 22.441406 13.925781 C 22.441406 14.707031 23.125 15.066406 23.589844 15.066406 L 24.171875 15.070312 C 24.261719 15.066406 24.679688 15.066406 24.679688 15.066406 L 24.679688 15.808594 L 22.503906 15.8125 L 22.503906 16.839844 L 24.574219 16.839844 C 25 16.839844 25.6875 16.527344 25.710938 15.699219 L 25.710938 15.238281 C 25.710938 14.527344 25.132812 14.101562 24.574219 14.101562 L 23.421875 14.101562 L 23.421875 13.386719 L 25.542969 13.386719 L 25.542969 12.351562 Z M 6.140625 13.214844 C 6.054688 13.460938 5.996094 13.703125 5.941406 13.9375 L 6.476562 14.359375 C 6.503906 14.105469 6.546875 13.847656 6.613281 13.589844 Z M 14.355469 13.300781 L 14.792969 13.300781 C 15.136719 13.300781 15.234375 13.519531 15.238281 13.636719 L 15.238281 14.855469 L 13.871094 14.855469 L 13.871094 13.636719 C 13.871094 13.632812 13.878906 13.300781 14.355469 13.300781 Z M 9.347656 13.332031 L 10.46875 13.335938 C 10.480469 13.34375 10.804688 13.46875 10.804688 13.945312 C 10.804688 14.421875 10.476562 14.554688 10.433594 14.566406 L 9.347656 14.566406 Z M 0.328125 13.480469 C 0.203125 13.761719 0.0664062 14.089844 0 14.269531 L 0.753906 14.542969 C 0.839844 14.320312 0.976562 14 1.082031 13.753906 Z M 5.84375 15.605469 C 5.859375 15.953125 5.890625 16.238281 5.925781 16.433594 L 6.710938 16.714844 C 6.652344 16.460938 6.59375 16.171875 6.554688 15.863281 Z M 5.84375 15.605469 "/>
</g>
</svg>
