<?xml version="1.0" encoding="UTF-8"?>
<svg xmlns="http://www.w3.org/2000/svg" xmlns:xlink="http://www.w3.org/1999/xlink" viewBox="0 0 26 26" width="26px" height="26px">
<defs>
<linearGradient id="linear0" gradientUnits="userSpaceOnUse" x1="59.125" y1="40.3125" x2="59.125" y2="126.3125" gradientTransform="matrix(0.151163,0,0,0.151163,0,0)">
<stop offset="0" style="stop-color:rgb(43.921569%,87.450981%,100%);stop-opacity:1;"/>
<stop offset="1" style="stop-color:rgb(43.921569%,68.627453%,100%);stop-opacity:1;"/>
</linearGradient>
<linearGradient id="linear1" gradientUnits="userSpaceOnUse" x1="112.875" y1="40.3125" x2="112.875" y2="88.6875" gradientTransform="matrix(0.151163,0,0,0.151163,0,0)">
<stop offset="0" style="stop-color:rgb(43.921569%,87.450981%,100%);stop-opacity:1;"/>
<stop offset="1" style="stop-color:rgb(43.921569%,68.627453%,100%);stop-opacity:1;"/>
</linearGradient>
<linearGradient id="linear2" gradientUnits="userSpaceOnUse" x1="86" y1="20.18581" x2="86" y2="151.472885" gradientTransform="matrix(0.151163,0,0,0.151163,0,0)">
<stop offset="0" style="stop-color:rgb(0%,77.64706%,100%);stop-opacity:1;"/>
<stop offset="1" style="stop-color:rgb(0%,44.705883%,100%);stop-opacity:1;"/>
</linearGradient>
</defs>
<g id="surface14114689">
<path style=" stroke:none;fill-rule:nonzero;fill:url(#linear0);" d="M 10.96875 19.09375 L 6.90625 19.09375 C 6.457031 19.09375 6.09375 18.730469 6.09375 18.28125 L 6.09375 6.90625 C 6.09375 6.457031 6.457031 6.09375 6.90625 6.09375 L 10.96875 6.09375 C 11.417969 6.09375 11.78125 6.457031 11.78125 6.90625 L 11.78125 18.28125 C 11.78125 18.730469 11.417969 19.09375 10.96875 19.09375 Z M 10.96875 19.09375 "/>
<path style=" stroke:none;fill-rule:nonzero;fill:url(#linear1);" d="M 19.09375 13.40625 L 15.03125 13.40625 C 14.582031 13.40625 14.21875 13.042969 14.21875 12.59375 L 14.21875 6.90625 C 14.21875 6.457031 14.582031 6.09375 15.03125 6.09375 L 19.09375 6.09375 C 19.542969 6.09375 19.90625 6.457031 19.90625 6.90625 L 19.90625 12.59375 C 19.90625 13.042969 19.542969 13.40625 19.09375 13.40625 Z M 19.09375 13.40625 "/>
<path style=" stroke:none;fill-rule:nonzero;fill:url(#linear2);" d="M 20.71875 22.75 L 5.28125 22.75 C 4.160156 22.75 3.25 21.839844 3.25 20.71875 L 3.25 5.28125 C 3.25 4.160156 4.160156 3.25 5.28125 3.25 L 20.71875 3.25 C 21.839844 3.25 22.75 4.160156 22.75 5.28125 L 22.75 20.71875 C 22.75 21.839844 21.839844 22.75 20.71875 22.75 Z M 5.28125 4.0625 C 4.609375 4.0625 4.0625 4.609375 4.0625 5.28125 L 4.0625 20.71875 C 4.0625 21.390625 4.609375 21.9375 5.28125 21.9375 L 20.71875 21.9375 C 21.390625 21.9375 21.9375 21.390625 21.9375 20.71875 L 21.9375 5.28125 C 21.9375 4.609375 21.390625 4.0625 20.71875 4.0625 Z M 10.96875 19.5 L 6.90625 19.5 C 6.234375 19.5 5.6875 18.953125 5.6875 18.28125 L 5.6875 6.90625 C 5.6875 6.234375 6.234375 5.6875 6.90625 5.6875 L 10.96875 5.6875 C 11.640625 5.6875 12.1875 6.234375 12.1875 6.90625 L 12.1875 18.28125 C 12.1875 18.953125 11.640625 19.5 10.96875 19.5 Z M 6.90625 6.5 C 6.683594 6.5 6.5 6.683594 6.5 6.90625 L 6.5 18.28125 C 6.5 18.503906 6.683594 18.6875 6.90625 18.6875 L 10.96875 18.6875 C 11.191406 18.6875 11.375 18.503906 11.375 18.28125 L 11.375 6.90625 C 11.375 6.683594 11.191406 6.5 10.96875 6.5 Z M 19.09375 13.8125 L 15.03125 13.8125 C 14.359375 13.8125 13.8125 13.265625 13.8125 12.59375 L 13.8125 6.90625 C 13.8125 6.234375 14.359375 5.6875 15.03125 5.6875 L 19.09375 5.6875 C 19.765625 5.6875 20.3125 6.234375 20.3125 6.90625 L 20.3125 12.59375 C 20.3125 13.265625 19.765625 13.8125 19.09375 13.8125 Z M 15.03125 6.5 C 14.808594 6.5 14.625 6.683594 14.625 6.90625 L 14.625 12.59375 C 14.625 12.816406 14.808594 13 15.03125 13 L 19.09375 13 C 19.316406 13 19.5 12.816406 19.5 12.59375 L 19.5 6.90625 C 19.5 6.683594 19.316406 6.5 19.09375 6.5 Z M 15.03125 6.5 "/>
</g>
</svg>
